<svg width="1000" height="60" viewBox="0 0 1000 60" fill="none" xmlns="http://www.w3.org/2000/svg">
  <rect width="1000" height="60" fill="#161b22" rx="8"/>
  <path d="M1 8C1 4.13401 4.13401 1 8 1H992C995.866 1 999 4.13401 999 8V52C999 55.866 995.866 59 992 59H8C4.13401 59 1 55.866 1 52V8Z" stroke="#30363d"/>
  
  <!-- Icon -->
  <rect x="20" y="15" width="30" height="30" rx="6" fill="#58a6ff"/>
  <path d="M35 22L28 35H42L35 22Z" fill="white"/>

  <!-- Title Text -->
  <text x="65" y="28" fill="white" font-family="sans-serif" font-size="14" font-weight="bold">SYSTEM_ARCHITECT_0631</text>
  <text x="65" y="44" fill="#8b949e" font-family="monospace" font-size="10">FIDELITY_PROTOCOL_v4.0_STABLE</text>

  <!-- Status Indicator -->
  <circle cx="750" cy="30" r="4" fill="#3fb950">
    <animate attributeName="opacity" values="1;0.3;1" dur="2s" repeatCount="indefinite" />
  </circle>
  <text x="765" y="34" fill="#3fb950" font-family="monospace" font-size="11" font-weight="bold">LIVE_TELEMETRY</text>

  <!-- Button Simulation -->
  <rect x="860" y="15" width="120" height="30" rx="15" fill="#238636"/>
  <text x="920" y="34" text-anchor="middle" fill="white" font-family="sans-serif" font-size="10" font-weight="bold">INITIATE PUSH</text>
</svg>
